<?xml version="1.0" encoding="UTF-8"?>
<!DOCTYPE svg PUBLIC "-//W3C//DTD SVG 1.1//EN" "http://www.w3.org/Graphics/SVG/1.1/DTD/svg11.dtd">
<!-- Creator: CorelDRAW X8 -->
<svg xmlns="http://www.w3.org/2000/svg" xml:space="preserve" width="65.8988mm" height="65.8988mm" version="1.1" style="shape-rendering:geometricPrecision; text-rendering:geometricPrecision; image-rendering:optimizeQuality; fill-rule:evenodd; clip-rule:evenodd"
viewBox="0 0 1464 1464"
 xmlns:xlink="http://www.w3.org/1999/xlink">
 <defs>
  <style type="text/css">
   <![CDATA[
    .fil7 {fill:#FEFEFE}
    .fil3 {fill:#5DB9E9}
    .fil2 {fill:#41B2E6}
    .fil1 {fill:#08A9E3}
    .fil0 {fill:#00A6E1}
    .fil4 {fill:#00A0DE}
    .fil5 {fill:#009ADB}
    .fil6 {fill:#0092D7}
   ]]>
  </style>
 </defs>
 <g id="Ebene_x0020_1">
  <metadata id="CorelCorpID_0Corel-Layer"/>
  <g id="_1949960166368">
   <polygon class="fil0" points="0,1171 293,1171 293,1464 0,1464 "/>
   <polygon class="fil1" points="293,1171 586,1171 586,1464 293,1464 "/>
   <polygon class="fil2" points="586,1171 879,1171 879,1464 586,1464 "/>
   <polygon class="fil3" points="879,1171 1171,1171 1171,1464 879,1464 "/>
   <polygon class="fil3" points="1171,1171 1464,1171 1464,1464 1171,1464 "/>
   <polygon class="fil4" points="0,879 293,879 293,1171 0,1171 "/>
   <polygon class="fil0" points="293,879 586,879 586,1171 293,1171 "/>
   <polygon class="fil1" points="586,879 879,879 879,1171 586,1171 "/>
   <polygon class="fil2" points="879,879 1171,879 1171,1171 879,1171 "/>
   <polygon class="fil3" points="1171,879 1464,879 1464,1171 1171,1171 "/>
   <polygon class="fil5" points="0,586 293,586 293,879 0,879 "/>
   <polygon class="fil4" points="293,586 586,586 586,879 293,879 "/>
   <polygon class="fil0" points="586,586 879,586 879,879 586,879 "/>
   <polygon class="fil1" points="879,586 1171,586 1171,879 879,879 "/>
   <polygon class="fil2" points="1171,586 1464,586 1464,879 1171,879 "/>
   <polygon class="fil6" points="0,293 293,293 293,586 0,586 "/>
   <polygon class="fil5" points="293,293 586,293 586,586 293,586 "/>
   <polygon class="fil4" points="586,293 879,293 879,586 586,586 "/>
   <polygon class="fil0" points="879,293 1171,293 1171,586 879,586 "/>
   <polygon class="fil1" points="1171,293 1464,293 1464,586 1171,586 "/>
   <polygon class="fil6" points="0,0 293,0 293,293 0,293 "/>
   <polygon class="fil6" points="293,0 586,0 586,293 293,293 "/>
   <polygon class="fil5" points="586,0 879,0 879,293 586,293 "/>
   <polygon class="fil4" points="879,0 1171,0 1171,293 879,293 "/>
   <polygon class="fil7" points="448,890 447,890 345,507 277,507 399,958 494,958 617,507 548,507 "/>
   <path class="fil7" d="M721 958l51 0c132,0 228,-80 228,-217 0,-136 -102,-234 -236,-234l-43 0 0 451zm69 -389c86,4 141,90 141,171 0,85 -51,157 -141,155l0 -326z"/>
   <polygon class="fil7" points="1180,507 1112,507 1112,958 1180,958 "/>
   <polygon class="fil0" points="1171,0 1464,0 1464,293 1171,293 "/>
  </g>
 </g>
</svg>
